<svg xmlns="http://www.w3.org/2000/svg" version="1.1" xmlns:xlink="http://www.w3.org/1999/xlink" xmlns:svgjs="http://svgjs.com/svgjs" width="1440" height="560" preserveAspectRatio="none" viewBox="0 0 1440 560"><g mask="url(&quot;#SvgjsMask1000&quot;)" fill="none"><rect width="1440" height="560" x="0" y="0" fill="#0e2a47"></rect><path d="M76.03 502.38L140.99 539.88L140.99 614.88L76.03 652.38L11.08 614.88L11.08 539.88zM140.99 -60.12L205.94 -22.62L205.94 52.38L140.99 89.88L76.03 52.38L76.03 -22.62zM140.99 164.88L205.94 202.38L205.94 277.38L140.99 314.88L76.03 277.38L76.03 202.38zM205.94 277.38L270.89 314.88L270.89 389.88L205.94 427.38L140.99 389.88L140.99 314.88zM335.85 52.38L400.8 89.88L400.8 164.88L335.85 202.38L270.89 164.88L270.89 89.88zM335.85 277.38L400.8 314.88L400.8 389.88L335.85 427.38L270.89 389.88L270.89 314.88zM335.85 502.38L400.8 539.88L400.8 614.88L335.85 652.38L270.89 614.88L270.89 539.88zM465.76 277.38L530.71 314.88L530.71 389.88L465.76 427.38L400.8 389.88L400.8 314.88zM400.8 389.88L465.76 427.38L465.76 502.38L400.8 539.88L335.85 502.38L335.85 427.38zM465.76 502.38L530.71 539.88L530.71 614.88L465.76 652.38L400.8 614.88L400.8 539.88zM595.66 52.38L660.62 89.88L660.62 164.88L595.66 202.38L530.71 164.88L530.71 89.88zM595.66 277.38L660.62 314.88L660.62 389.88L595.66 427.38L530.71 389.88L530.71 314.88zM530.71 389.88L595.66 427.38L595.66 502.38L530.71 539.88L465.76 502.38L465.76 427.38zM595.66 502.38L660.62 539.88L660.62 614.88L595.66 652.38L530.71 614.88L530.71 539.88zM660.62 164.88L725.57 202.38L725.57 277.38L660.62 314.88L595.66 277.38L595.66 202.38zM660.62 389.88L725.57 427.38L725.57 502.38L660.62 539.88L595.66 502.38L595.66 427.38zM725.57 502.38L790.53 539.88L790.53 614.88L725.57 652.38L660.62 614.88L660.62 539.88zM790.52 164.88L855.48 202.38L855.48 277.38L790.52 314.88L725.57 277.38L725.57 202.38zM855.48 502.38L920.43 539.88L920.43 614.88L855.48 652.38L790.52 614.88L790.52 539.88zM985.39 52.38L1050.34 89.88L1050.34 164.88L985.39 202.38L920.43 164.88L920.43 89.88zM920.43 164.88L985.39 202.38L985.39 277.38L920.43 314.88L855.48 277.38L855.48 202.38zM920.43 389.88L985.39 427.38L985.39 502.38L920.43 539.88L855.48 502.38L855.48 427.38zM1115.29 277.38L1180.25 314.88L1180.25 389.88L1115.29 427.38L1050.34 389.88L1050.34 314.88zM1115.29 502.38L1180.25 539.88L1180.25 614.88L1115.29 652.38L1050.34 614.88L1050.34 539.88zM1180.25 -60.12L1245.2 -22.62L1245.2 52.38L1180.25 89.88L1115.29 52.38L1115.29 -22.62zM1245.2 52.38L1310.15 89.88L1310.15 164.88L1245.2 202.38L1180.25 164.88L1180.25 89.88zM1245.2 277.38L1310.15 314.88L1310.15 389.88L1245.2 427.38L1180.25 389.88L1180.25 314.88zM1180.25 389.88L1245.2 427.38L1245.2 502.38L1180.25 539.88L1115.29 502.38L1115.29 427.38zM1375.11 52.38L1440.06 89.88L1440.06 164.88L1375.11 202.38L1310.15 164.88L1310.15 89.88zM1310.15 164.88L1375.11 202.38L1375.11 277.38L1310.15 314.88L1245.2 277.38L1245.2 202.38zM1310.15 389.88L1375.11 427.38L1375.11 502.38L1310.15 539.88L1245.2 502.38L1245.2 427.38zM1440.06 -60.12L1505.02 -22.62L1505.02 52.38L1440.06 89.88L1375.11 52.38L1375.11 -22.62zM1505.02 52.38L1569.97 89.88L1569.97 164.88L1505.02 202.38L1440.06 164.88L1440.06 89.88zM1505.02 277.38L1569.97 314.88L1569.97 389.88L1505.02 427.38L1440.06 389.88L1440.06 314.88z" stroke="#03305d" stroke-width="2"></path><path d="M68.53 502.38 a7.5 7.5 0 1 0 15 0 a7.5 7.5 0 1 0 -15 0zM133.49 539.88 a7.5 7.5 0 1 0 15 0 a7.5 7.5 0 1 0 -15 0zM133.49 614.88 a7.5 7.5 0 1 0 15 0 a7.5 7.5 0 1 0 -15 0zM68.53 652.38 a7.5 7.5 0 1 0 15 0 a7.5 7.5 0 1 0 -15 0zM3.58 614.88 a7.5 7.5 0 1 0 15 0 a7.5 7.5 0 1 0 -15 0zM3.58 539.88 a7.5 7.5 0 1 0 15 0 a7.5 7.5 0 1 0 -15 0zM133.49 -60.12 a7.5 7.5 0 1 0 15 0 a7.5 7.5 0 1 0 -15 0zM198.44 -22.62 a7.5 7.5 0 1 0 15 0 a7.5 7.5 0 1 0 -15 0zM198.44 52.38 a7.5 7.5 0 1 0 15 0 a7.5 7.5 0 1 0 -15 0zM133.49 89.88 a7.5 7.5 0 1 0 15 0 a7.5 7.5 0 1 0 -15 0zM68.53 52.38 a7.5 7.5 0 1 0 15 0 a7.5 7.5 0 1 0 -15 0zM68.53 -22.62 a7.5 7.5 0 1 0 15 0 a7.5 7.5 0 1 0 -15 0zM133.49 164.88 a7.5 7.5 0 1 0 15 0 a7.5 7.5 0 1 0 -15 0zM198.44 202.38 a7.5 7.5 0 1 0 15 0 a7.5 7.5 0 1 0 -15 0zM198.44 277.38 a7.5 7.5 0 1 0 15 0 a7.5 7.5 0 1 0 -15 0zM133.49 314.88 a7.5 7.5 0 1 0 15 0 a7.5 7.5 0 1 0 -15 0zM68.53 277.38 a7.5 7.5 0 1 0 15 0 a7.5 7.5 0 1 0 -15 0zM68.53 202.38 a7.5 7.5 0 1 0 15 0 a7.5 7.5 0 1 0 -15 0zM263.39 314.88 a7.5 7.5 0 1 0 15 0 a7.5 7.5 0 1 0 -15 0zM263.39 389.88 a7.5 7.5 0 1 0 15 0 a7.5 7.5 0 1 0 -15 0zM198.44 427.38 a7.5 7.5 0 1 0 15 0 a7.5 7.5 0 1 0 -15 0zM133.49 389.88 a7.5 7.5 0 1 0 15 0 a7.5 7.5 0 1 0 -15 0zM328.35 52.38 a7.5 7.5 0 1 0 15 0 a7.5 7.5 0 1 0 -15 0zM393.3 89.88 a7.5 7.5 0 1 0 15 0 a7.5 7.5 0 1 0 -15 0zM393.3 164.88 a7.5 7.5 0 1 0 15 0 a7.5 7.5 0 1 0 -15 0zM328.35 202.38 a7.5 7.5 0 1 0 15 0 a7.5 7.5 0 1 0 -15 0zM263.39 164.88 a7.5 7.5 0 1 0 15 0 a7.5 7.5 0 1 0 -15 0zM263.39 89.88 a7.5 7.5 0 1 0 15 0 a7.5 7.5 0 1 0 -15 0zM328.35 277.38 a7.5 7.5 0 1 0 15 0 a7.5 7.5 0 1 0 -15 0zM393.3 314.88 a7.5 7.5 0 1 0 15 0 a7.5 7.5 0 1 0 -15 0zM393.3 389.88 a7.5 7.5 0 1 0 15 0 a7.5 7.5 0 1 0 -15 0zM328.35 427.38 a7.5 7.5 0 1 0 15 0 a7.5 7.5 0 1 0 -15 0zM328.35 502.38 a7.5 7.5 0 1 0 15 0 a7.5 7.5 0 1 0 -15 0zM393.3 539.88 a7.5 7.5 0 1 0 15 0 a7.5 7.5 0 1 0 -15 0zM393.3 614.88 a7.5 7.5 0 1 0 15 0 a7.5 7.5 0 1 0 -15 0zM328.35 652.38 a7.5 7.5 0 1 0 15 0 a7.5 7.5 0 1 0 -15 0zM263.39 614.88 a7.5 7.5 0 1 0 15 0 a7.5 7.5 0 1 0 -15 0zM263.39 539.88 a7.5 7.5 0 1 0 15 0 a7.5 7.5 0 1 0 -15 0zM458.26 277.38 a7.5 7.5 0 1 0 15 0 a7.5 7.5 0 1 0 -15 0zM523.21 314.88 a7.5 7.5 0 1 0 15 0 a7.5 7.5 0 1 0 -15 0zM523.21 389.88 a7.5 7.5 0 1 0 15 0 a7.5 7.5 0 1 0 -15 0zM458.26 427.38 a7.5 7.5 0 1 0 15 0 a7.5 7.5 0 1 0 -15 0zM458.26 502.38 a7.5 7.5 0 1 0 15 0 a7.5 7.5 0 1 0 -15 0zM523.21 539.88 a7.5 7.5 0 1 0 15 0 a7.5 7.5 0 1 0 -15 0zM523.21 614.88 a7.5 7.5 0 1 0 15 0 a7.5 7.5 0 1 0 -15 0zM458.26 652.38 a7.5 7.5 0 1 0 15 0 a7.5 7.5 0 1 0 -15 0zM588.16 52.38 a7.5 7.5 0 1 0 15 0 a7.5 7.5 0 1 0 -15 0zM653.12 89.88 a7.5 7.5 0 1 0 15 0 a7.5 7.5 0 1 0 -15 0zM653.12 164.88 a7.5 7.5 0 1 0 15 0 a7.5 7.5 0 1 0 -15 0zM588.16 202.38 a7.5 7.5 0 1 0 15 0 a7.5 7.5 0 1 0 -15 0zM523.21 164.88 a7.5 7.5 0 1 0 15 0 a7.5 7.5 0 1 0 -15 0zM523.21 89.88 a7.5 7.5 0 1 0 15 0 a7.5 7.5 0 1 0 -15 0zM588.16 277.38 a7.5 7.5 0 1 0 15 0 a7.5 7.5 0 1 0 -15 0zM653.12 314.88 a7.5 7.5 0 1 0 15 0 a7.5 7.5 0 1 0 -15 0zM653.12 389.88 a7.5 7.5 0 1 0 15 0 a7.5 7.5 0 1 0 -15 0zM588.16 427.38 a7.5 7.5 0 1 0 15 0 a7.5 7.5 0 1 0 -15 0zM588.16 502.38 a7.5 7.5 0 1 0 15 0 a7.5 7.5 0 1 0 -15 0zM653.12 539.88 a7.5 7.5 0 1 0 15 0 a7.5 7.5 0 1 0 -15 0zM653.12 614.88 a7.5 7.5 0 1 0 15 0 a7.5 7.5 0 1 0 -15 0zM588.16 652.38 a7.5 7.5 0 1 0 15 0 a7.5 7.5 0 1 0 -15 0zM718.07 202.38 a7.5 7.5 0 1 0 15 0 a7.5 7.5 0 1 0 -15 0zM718.07 277.38 a7.5 7.5 0 1 0 15 0 a7.5 7.5 0 1 0 -15 0zM718.07 427.38 a7.5 7.5 0 1 0 15 0 a7.5 7.5 0 1 0 -15 0zM718.07 502.38 a7.5 7.5 0 1 0 15 0 a7.5 7.5 0 1 0 -15 0zM783.03 539.88 a7.5 7.5 0 1 0 15 0 a7.5 7.5 0 1 0 -15 0zM783.03 614.88 a7.5 7.5 0 1 0 15 0 a7.5 7.5 0 1 0 -15 0zM718.07 652.38 a7.5 7.5 0 1 0 15 0 a7.5 7.5 0 1 0 -15 0zM783.02 164.88 a7.5 7.5 0 1 0 15 0 a7.5 7.5 0 1 0 -15 0zM847.98 202.38 a7.5 7.5 0 1 0 15 0 a7.5 7.5 0 1 0 -15 0zM847.98 277.38 a7.5 7.5 0 1 0 15 0 a7.5 7.5 0 1 0 -15 0zM783.02 314.88 a7.5 7.5 0 1 0 15 0 a7.5 7.5 0 1 0 -15 0zM847.98 502.38 a7.5 7.5 0 1 0 15 0 a7.5 7.5 0 1 0 -15 0zM912.93 539.88 a7.5 7.5 0 1 0 15 0 a7.5 7.5 0 1 0 -15 0zM912.93 614.88 a7.5 7.5 0 1 0 15 0 a7.5 7.5 0 1 0 -15 0zM847.98 652.38 a7.5 7.5 0 1 0 15 0 a7.5 7.5 0 1 0 -15 0zM783.02 614.88 a7.5 7.5 0 1 0 15 0 a7.5 7.5 0 1 0 -15 0zM783.02 539.88 a7.5 7.5 0 1 0 15 0 a7.5 7.5 0 1 0 -15 0zM977.89 52.38 a7.5 7.5 0 1 0 15 0 a7.5 7.5 0 1 0 -15 0zM1042.84 89.88 a7.5 7.5 0 1 0 15 0 a7.5 7.5 0 1 0 -15 0zM1042.84 164.88 a7.5 7.5 0 1 0 15 0 a7.5 7.5 0 1 0 -15 0zM977.89 202.38 a7.5 7.5 0 1 0 15 0 a7.5 7.5 0 1 0 -15 0zM912.93 164.88 a7.5 7.5 0 1 0 15 0 a7.5 7.5 0 1 0 -15 0zM912.93 89.88 a7.5 7.5 0 1 0 15 0 a7.5 7.5 0 1 0 -15 0zM977.89 277.38 a7.5 7.5 0 1 0 15 0 a7.5 7.5 0 1 0 -15 0zM912.93 314.88 a7.5 7.5 0 1 0 15 0 a7.5 7.5 0 1 0 -15 0zM912.93 389.88 a7.5 7.5 0 1 0 15 0 a7.5 7.5 0 1 0 -15 0zM977.89 427.38 a7.5 7.5 0 1 0 15 0 a7.5 7.5 0 1 0 -15 0zM977.89 502.38 a7.5 7.5 0 1 0 15 0 a7.5 7.5 0 1 0 -15 0zM847.98 427.38 a7.5 7.5 0 1 0 15 0 a7.5 7.5 0 1 0 -15 0zM1107.79 277.38 a7.5 7.5 0 1 0 15 0 a7.5 7.5 0 1 0 -15 0zM1172.75 314.88 a7.5 7.5 0 1 0 15 0 a7.5 7.5 0 1 0 -15 0zM1172.75 389.88 a7.5 7.5 0 1 0 15 0 a7.5 7.5 0 1 0 -15 0zM1107.79 427.38 a7.5 7.5 0 1 0 15 0 a7.5 7.5 0 1 0 -15 0zM1042.84 389.88 a7.5 7.5 0 1 0 15 0 a7.5 7.5 0 1 0 -15 0zM1042.84 314.88 a7.5 7.5 0 1 0 15 0 a7.5 7.5 0 1 0 -15 0zM1107.79 502.38 a7.5 7.5 0 1 0 15 0 a7.5 7.5 0 1 0 -15 0zM1172.75 539.88 a7.5 7.5 0 1 0 15 0 a7.5 7.5 0 1 0 -15 0zM1172.75 614.88 a7.5 7.5 0 1 0 15 0 a7.5 7.5 0 1 0 -15 0zM1107.79 652.38 a7.5 7.5 0 1 0 15 0 a7.5 7.5 0 1 0 -15 0zM1042.84 614.88 a7.5 7.5 0 1 0 15 0 a7.5 7.5 0 1 0 -15 0zM1042.84 539.88 a7.5 7.5 0 1 0 15 0 a7.5 7.5 0 1 0 -15 0zM1172.75 -60.12 a7.5 7.5 0 1 0 15 0 a7.5 7.5 0 1 0 -15 0zM1237.7 -22.62 a7.5 7.5 0 1 0 15 0 a7.5 7.5 0 1 0 -15 0zM1237.7 52.38 a7.5 7.5 0 1 0 15 0 a7.5 7.5 0 1 0 -15 0zM1172.75 89.88 a7.5 7.5 0 1 0 15 0 a7.5 7.5 0 1 0 -15 0zM1107.79 52.38 a7.5 7.5 0 1 0 15 0 a7.5 7.5 0 1 0 -15 0zM1107.79 -22.62 a7.5 7.5 0 1 0 15 0 a7.5 7.5 0 1 0 -15 0zM1302.65 89.88 a7.5 7.5 0 1 0 15 0 a7.5 7.5 0 1 0 -15 0zM1302.65 164.88 a7.5 7.5 0 1 0 15 0 a7.5 7.5 0 1 0 -15 0zM1237.7 202.38 a7.5 7.5 0 1 0 15 0 a7.5 7.5 0 1 0 -15 0zM1172.75 164.88 a7.5 7.5 0 1 0 15 0 a7.5 7.5 0 1 0 -15 0zM1237.7 277.38 a7.5 7.5 0 1 0 15 0 a7.5 7.5 0 1 0 -15 0zM1302.65 314.88 a7.5 7.5 0 1 0 15 0 a7.5 7.5 0 1 0 -15 0zM1302.65 389.88 a7.5 7.5 0 1 0 15 0 a7.5 7.5 0 1 0 -15 0zM1237.7 427.38 a7.5 7.5 0 1 0 15 0 a7.5 7.5 0 1 0 -15 0zM1237.7 502.38 a7.5 7.5 0 1 0 15 0 a7.5 7.5 0 1 0 -15 0zM1367.61 52.38 a7.5 7.5 0 1 0 15 0 a7.5 7.5 0 1 0 -15 0zM1432.56 89.88 a7.5 7.5 0 1 0 15 0 a7.5 7.5 0 1 0 -15 0zM1432.56 164.88 a7.5 7.5 0 1 0 15 0 a7.5 7.5 0 1 0 -15 0zM1367.61 202.38 a7.5 7.5 0 1 0 15 0 a7.5 7.5 0 1 0 -15 0zM1367.61 277.38 a7.5 7.5 0 1 0 15 0 a7.5 7.5 0 1 0 -15 0zM1367.61 427.38 a7.5 7.5 0 1 0 15 0 a7.5 7.5 0 1 0 -15 0zM1367.61 502.38 a7.5 7.5 0 1 0 15 0 a7.5 7.5 0 1 0 -15 0zM1302.65 539.88 a7.5 7.5 0 1 0 15 0 a7.5 7.5 0 1 0 -15 0zM1432.56 -60.12 a7.5 7.5 0 1 0 15 0 a7.5 7.5 0 1 0 -15 0zM1497.52 -22.62 a7.5 7.5 0 1 0 15 0 a7.5 7.5 0 1 0 -15 0zM1497.52 52.38 a7.5 7.5 0 1 0 15 0 a7.5 7.5 0 1 0 -15 0zM1367.61 -22.62 a7.5 7.5 0 1 0 15 0 a7.5 7.5 0 1 0 -15 0zM1562.47 89.88 a7.5 7.5 0 1 0 15 0 a7.5 7.5 0 1 0 -15 0zM1562.47 164.88 a7.5 7.5 0 1 0 15 0 a7.5 7.5 0 1 0 -15 0zM1497.52 202.38 a7.5 7.5 0 1 0 15 0 a7.5 7.5 0 1 0 -15 0zM1497.52 277.38 a7.5 7.5 0 1 0 15 0 a7.5 7.5 0 1 0 -15 0zM1562.47 314.88 a7.5 7.5 0 1 0 15 0 a7.5 7.5 0 1 0 -15 0zM1562.47 389.88 a7.5 7.5 0 1 0 15 0 a7.5 7.5 0 1 0 -15 0zM1497.52 427.38 a7.5 7.5 0 1 0 15 0 a7.5 7.5 0 1 0 -15 0zM1432.56 389.88 a7.5 7.5 0 1 0 15 0 a7.5 7.5 0 1 0 -15 0zM1432.56 314.88 a7.5 7.5 0 1 0 15 0 a7.5 7.5 0 1 0 -15 0z" fill="#03305d"></path><path d="M9.03 -2.51L52.33 22.49L52.33 72.49L9.03 97.49L-34.27 72.49L-34.27 22.49zM52.33 72.49L95.64 97.49L95.64 147.49L52.33 172.49L9.03 147.49L9.03 97.49zM52.33 222.49L95.64 247.49L95.64 297.49L52.33 322.49L9.03 297.49L9.03 247.49zM9.03 297.49L52.33 322.49L52.33 372.49L9.03 397.49L-34.27 372.49L-34.27 322.49zM52.33 522.49L95.64 547.49L95.64 597.49L52.33 622.49L9.03 597.49L9.03 547.49zM138.94 72.49L182.24 97.49L182.24 147.49L138.94 172.49L95.64 147.49L95.64 97.49zM138.94 222.49L182.24 247.49L182.24 297.49L138.94 322.49L95.64 297.49L95.64 247.49zM182.24 147.49L225.54 172.49L225.54 222.49L182.24 247.49L138.94 222.49L138.94 172.49zM225.54 222.49L268.84 247.49L268.84 297.49L225.54 322.49L182.24 297.49L182.24 247.49zM182.24 447.49L225.54 472.49L225.54 522.49L182.24 547.49L138.94 522.49L138.94 472.49zM312.15 72.49L355.45 97.49L355.45 147.49L312.15 172.49L268.84 147.49L268.84 97.49zM312.15 222.49L355.45 247.49L355.45 297.49L312.15 322.49L268.84 297.49L268.84 247.49zM268.84 297.49L312.15 322.49L312.15 372.49L268.84 397.49L225.54 372.49L225.54 322.49zM312.15 372.49L355.45 397.49L355.45 447.49L312.15 472.49L268.84 447.49L268.84 397.49zM268.84 447.49L312.15 472.49L312.15 522.49L268.84 547.49L225.54 522.49L225.54 472.49zM398.75 72.49L442.06 97.49L442.06 147.49L398.75 172.49L355.45 147.49L355.45 97.49zM355.45 147.49L398.75 172.49L398.75 222.49L355.45 247.49L312.15 222.49L312.15 172.49zM355.45 447.49L398.75 472.49L398.75 522.49L355.45 547.49L312.15 522.49L312.15 472.49zM485.36 222.49L528.66 247.49L528.66 297.49L485.36 322.49L442.06 297.49L442.06 247.49zM485.36 372.49L528.66 397.49L528.66 447.49L485.36 472.49L442.06 447.49L442.06 397.49zM571.96 72.49L615.26 97.49L615.26 147.49L571.96 172.49L528.66 147.49L528.66 97.49zM528.66 147.49L571.96 172.49L571.96 222.49L528.66 247.49L485.36 222.49L485.36 172.49zM571.96 372.49L615.26 397.49L615.26 447.49L571.96 472.49L528.66 447.49L528.66 397.49zM528.66 447.49L571.96 472.49L571.96 522.49L528.66 547.49L485.36 522.49L485.36 472.49zM571.96 522.49L615.26 547.49L615.26 597.49L571.96 622.49L528.66 597.49L528.66 547.49zM615.26 -2.51L658.57 22.49L658.57 72.49L615.26 97.49L571.96 72.49L571.96 22.49zM658.57 222.49L701.87 247.49L701.87 297.49L658.57 322.49L615.26 297.49L615.26 247.49zM615.26 447.49L658.57 472.49L658.57 522.49L615.26 547.49L571.96 522.49L571.96 472.49zM658.57 522.49L701.87 547.49L701.87 597.49L658.57 622.49L615.26 597.49L615.26 547.49zM701.87 -2.51L745.17 22.49L745.17 72.49L701.87 97.49L658.57 72.49L658.57 22.49zM745.17 72.49L788.48 97.49L788.48 147.49L745.17 172.49L701.87 147.49L701.87 97.49zM745.17 222.49L788.48 247.49L788.48 297.49L745.17 322.49L701.87 297.49L701.87 247.49zM788.48 447.49L831.78 472.49L831.78 522.49L788.48 547.49L745.17 522.49L745.17 472.49zM831.78 522.49L875.08 547.49L875.08 597.49L831.78 622.49L788.48 597.49L788.48 547.49zM918.38 72.49L961.69 97.49L961.69 147.49L918.38 172.49L875.08 147.49L875.08 97.49zM875.08 147.49L918.38 172.49L918.38 222.49L875.08 247.49L831.78 222.49L831.78 172.49zM1004.99 222.49L1048.29 247.49L1048.29 297.49L1004.99 322.49L961.69 297.49L961.69 247.49zM961.69 297.49L1004.99 322.49L1004.99 372.49L961.69 397.49L918.38 372.49L918.38 322.49zM1004.99 522.49L1048.29 547.49L1048.29 597.49L1004.99 622.49L961.69 597.49L961.69 547.49zM1048.29 -2.51L1091.59 22.49L1091.59 72.49L1048.29 97.49L1004.99 72.49L1004.99 22.49zM1091.59 72.49L1134.89 97.49L1134.89 147.49L1091.59 172.49L1048.29 147.49L1048.29 97.49zM1091.59 222.49L1134.89 247.49L1134.89 297.49L1091.59 322.49L1048.29 297.49L1048.29 247.49zM1048.29 297.49L1091.59 322.49L1091.59 372.49L1048.29 397.49L1004.99 372.49L1004.99 322.49zM1048.29 447.49L1091.59 472.49L1091.59 522.49L1048.29 547.49L1004.99 522.49L1004.99 472.49zM1091.59 522.49L1134.89 547.49L1134.89 597.49L1091.59 622.49L1048.29 597.49L1048.29 547.49zM1134.89 297.49L1178.2 322.49L1178.2 372.49L1134.89 397.49L1091.59 372.49L1091.59 322.49zM1134.89 447.49L1178.2 472.49L1178.2 522.49L1134.89 547.49L1091.59 522.49L1091.59 472.49zM1178.2 522.49L1221.5 547.49L1221.5 597.49L1178.2 622.49L1134.89 597.49L1134.89 547.49zM1221.5 147.49L1264.8 172.49L1264.8 222.49L1221.5 247.49L1178.2 222.49L1178.2 172.49zM1221.5 447.49L1264.8 472.49L1264.8 522.49L1221.5 547.49L1178.2 522.49L1178.2 472.49zM1308.11 147.49L1351.41 172.49L1351.41 222.49L1308.11 247.49L1264.8 222.49L1264.8 172.49zM1351.41 222.49L1394.71 247.49L1394.71 297.49L1351.41 322.49L1308.11 297.49L1308.11 247.49zM1308.11 297.49L1351.41 322.49L1351.41 372.49L1308.11 397.49L1264.8 372.49L1264.8 322.49zM1308.11 447.49L1351.41 472.49L1351.41 522.49L1308.11 547.49L1264.8 522.49L1264.8 472.49zM1438.01 72.49L1481.32 97.49L1481.32 147.49L1438.01 172.49L1394.71 147.49L1394.71 97.49zM1394.71 297.49L1438.01 322.49L1438.01 372.49L1394.71 397.49L1351.41 372.49L1351.41 322.49zM1394.71 447.49L1438.01 472.49L1438.01 522.49L1394.71 547.49L1351.41 522.49L1351.41 472.49zM1438.01 522.49L1481.32 547.49L1481.32 597.49L1438.01 622.49L1394.71 597.49L1394.71 547.49z" stroke="rgba(6, 80, 156, 0.93)" stroke-width="2"></path></g><defs><mask id="SvgjsMask1000"><rect width="1440" height="560" fill="#ffffff"></rect></mask></defs></svg>